<svg fill="none" xmlns="http://www.w3.org/2000/svg" viewBox="0 0 28 24">
  <path d="M19.121 4.443a4.801 4.801 0 015.198 1.083l.03.03h.042c.339-.002.69.041 1.107-.018.384-.054.83-.196 1.417-.528-.306 1.484-.483 2.157-1.15 3.073l-.02.026v.034c0 3.798-1.167 6.613-2.919 8.596-1.643 1.86-3.807 2.994-6.02 3.518l-.444.096c-1.617.323-3.608.22-5.366-.142a12.944 12.944 0 01-2.376-.714c-.583-.246-1.06-.521-1.39-.808a16.014 16.014 0 002.014-.33c1-.232 2.128-.61 2.96-1.218l.115-.085-.12-.08c-.691-.455-2.387-1.478-3.468-3.46-1.064-1.952-1.538-4.853.183-9.09 1.56 1.795 3.143 3.063 4.752 3.798l.33.143c.58.239.946.356 1.235.424.289.067.501.084.761.12l.295.041-.18-.18a4.8 4.8 0 013.014-4.329zm1.784 1.458a3.001 3.001 0 00-2.98 2.653l-.02.293-.028 1.574a.502.502 0 01-.462.49l-.104-.004-1.562-.212c-2.032-.277-3.983-1.213-5.86-2.776l-.131-.11-.03.169c-.302 1.67-.16 3.093.42 4.324.543 1.153 1.465 2.13 2.747 2.981l.261.17 1.746 1.097a.502.502 0 01.184.642.496.496 0 01-.066.102l-.09.084-1.591 1.163-.224.163.277.017c.834.052 1.633.026 2.327-.081l.29-.052c2.38-.475 4.366-1.61 5.757-3.367 1.39-1.758 2.18-4.133 2.18-7.078 0-.146-.075-.358-.202-.585a3.25 3.25 0 00-.577-.738 3.224 3.224 0 00-2.078-.914l-.184-.005z" fill="#000" stroke="#fff" stroke-width=".2"/>
</svg>
